<?xml version="1.0" encoding="UTF-8" standalone="no"?>
<!-- Created with Inkscape (http://www.inkscape.org/) -->

<svg
   width="6.3499832mm"
   height="6.1696362mm"
   viewBox="0 0 6.3499829 6.1696359"
   version="1.1"
   id="svg1"
   xml:space="preserve"
   inkscape:version="1.3.2 (091e20e, 2023-11-25)"
   sodipodi:docname="gam.svg"
   xmlns:inkscape="http://www.inkscape.org/namespaces/inkscape"
   xmlns:sodipodi="http://sodipodi.sourceforge.net/DTD/sodipodi-0.dtd"
   xmlns="http://www.w3.org/2000/svg"
   xmlns:svg="http://www.w3.org/2000/svg"><sodipodi:namedview
     id="namedview1"
     pagecolor="#ffffff"
     bordercolor="#999999"
     borderopacity="1"
     inkscape:showpageshadow="0"
     inkscape:pageopacity="0"
     inkscape:pagecheckerboard="0"
     inkscape:deskcolor="#d1d1d1"
     inkscape:document-units="mm"
     inkscape:zoom="0.56420224"
     inkscape:cx="165.72072"
     inkscape:cy="109.00347"
     inkscape:window-width="1416"
     inkscape:window-height="862"
     inkscape:window-x="61"
     inkscape:window-y="39"
     inkscape:window-maximized="0"
     inkscape:current-layer="layer1" /><defs
     id="defs1" /><g
     inkscape:label="Layer 1"
     inkscape:groupmode="layer"
     id="layer1"
     transform="translate(-57.805643,-78.414876)"><path
       style="fill:#000000;stroke-width:0.999998"
       d="m 57.870693,84.566379 c -0.02042,-0.01111 -0.04341,-0.03194 -0.05109,-0.04629 -0.0094,-0.0176 -0.01396,-1.00282 -0.01396,-3.025217 V 78.49575 l 0.03982,-0.03982 c 0.04252,-0.04252 0.11338,-0.05357 0.165285,-0.0258 0.07132,0.03817 0.06736,-0.137386 0.06736,2.989286 v 2.895678 h 2.998225 2.998227 l 0.03982,0.03982 c 0.05226,0.05226 0.05519,0.131518 0.0069,0.187612 l -0.03288,0.03822 -3.090317,0.0029 c -2.70855,0.0025 -3.094903,4.12e-4 -3.127439,-0.01729 z m 0.922569,-1.058499 c -0.02373,-0.02041 -0.03817,-0.04939 -0.04317,-0.08662 -0.0065,-0.04859 -0.0021,-0.06202 0.03377,-0.102134 l 0.04127,-0.04619 0.305334,-0.0091 c 0.345371,-0.01028 0.576144,-0.04244 0.786823,-0.109651 0.525685,-0.167699 0.878157,-0.544811 1.083311,-1.159037 0.06624,-0.198327 0.109421,-0.384792 0.163137,-0.70449 0.04159,-0.247534 0.110193,-0.529108 0.170939,-0.701612 0.344555,-0.978451 1.015885,-1.504627 1.984387,-1.555329 l 0.166184,-0.0087 0.04839,0.04839 c 0.05327,0.05327 0.061,0.0962 0.02859,0.158857 -0.02751,0.0532 -0.06729,0.06417 -0.294664,0.08126 -0.712536,0.05354 -1.224726,0.404154 -1.544916,1.057551 -0.137716,0.281031 -0.217592,0.555056 -0.299821,1.028577 -0.08441,0.486112 -0.170049,0.76659 -0.328598,1.076267 -0.326481,0.637678 -0.870986,0.980204 -1.667386,1.048885 -0.08617,0.0074 -0.255951,0.01356 -0.377294,0.01363 -0.209285,1.03e-4 -0.222455,-0.0015 -0.256284,-0.03056 z"
       id="path1" /></g></svg>
