<?xml version="1.0" encoding="UTF-8" standalone="no"?>
<svg
   viewBox="0 0 512 448"
   version="1.1"
   id="svg1"
   sodipodi:docname="chart-line-solid.svg"
   width="512"
   height="448"
   inkscape:version="1.3.2 (091e20e, 2023-11-25)"
   xmlns:inkscape="http://www.inkscape.org/namespaces/inkscape"
   xmlns:sodipodi="http://sodipodi.sourceforge.net/DTD/sodipodi-0.dtd"
   xmlns="http://www.w3.org/2000/svg"
   xmlns:svg="http://www.w3.org/2000/svg">
  <defs
     id="defs1" />
  <sodipodi:namedview
     id="namedview1"
     pagecolor="#ffffff"
     bordercolor="#999999"
     borderopacity="1"
     inkscape:showpageshadow="0"
     inkscape:pageopacity="0"
     inkscape:pagecheckerboard="0"
     inkscape:deskcolor="#d1d1d1"
     inkscape:zoom="0.6184845"
     inkscape:cx="255.46315"
     inkscape:cy="261.12215"
     inkscape:window-width="1416"
     inkscape:window-height="862"
     inkscape:window-x="61"
     inkscape:window-y="38"
     inkscape:window-maximized="0"
     inkscape:current-layer="svg1" />
  <!--!Font Awesome Free 6.7.1 by @fontawesome - https://fontawesome.com License - https://fontawesome.com/license/free Copyright 2024 Fonticons, Inc.-->
  <path
     d="M 64,32 C 64,14.3 49.7,0 32,0 14.3,0 0,14.3 0,32 v 336 c 0,44.2 35.8,80 80,80 h 400 c 17.7,0 32,-14.3 32,-32 0,-17.7 -14.3,-32 -32,-32 H 80 c -8.8,0 -16,-7.2 -16,-16 z m 406.6,86.6 c 12.5,-12.5 12.5,-32.8 0,-45.3 -12.5,-12.5 -32.8,-12.5 -45.3,0 L 320,178.7 262.6,121.3 c -12.5,-12.5 -32.8,-12.5 -45.3,0 l -112,112 c -12.5,12.5 -12.5,32.8 0,45.3 12.5,12.5 32.8,12.5 45.3,0 l 89.4,-89.3 57.4,57.4 c 12.5,12.5 32.8,12.5 45.3,0 l 128,-128 z"
     id="path1"
     style="stroke-width:10.8;stroke-dasharray:none" />
</svg>
