<?xml version="1.0" encoding="UTF-8" standalone="no"?>
<svg
   xmlns:dc="http://purl.org/dc/elements/1.1/"
   xmlns:cc="http://creativecommons.org/ns#"
   xmlns:rdf="http://www.w3.org/1999/02/22-rdf-syntax-ns#"
   xmlns:svg="http://www.w3.org/2000/svg"
   xmlns="http://www.w3.org/2000/svg"
   xmlns:sodipodi="http://sodipodi.sourceforge.net/DTD/sodipodi-0.dtd"
   xmlns:inkscape="http://www.inkscape.org/namespaces/inkscape"
   version="1.1"
   id="svg228"
   width="19.999996"
   height="20.044817"
   viewBox="0 0 19.999996 20.044817"
   sodipodi:docname="Minerva.svg"
   inkscape:export-filename="Minerva.png"
   inkscape:export-xdpi="300"
   inkscape:export-ydpi="300"
   inkscape:version="1.0.2 (e86c870879, 2021-01-15)">
  <metadata
     id="metadata7">
    <rdf:RDF>
      <cc:Work
         rdf:about="">
        <dc:format>image/svg+xml</dc:format>
        <dc:type
           rdf:resource="http://purl.org/dc/dcmitype/StillImage" />
        <dc:title></dc:title>
      </cc:Work>
    </rdf:RDF>
  </metadata>
  <defs
     id="defs232" />
  <sodipodi:namedview
     id="namedview230"
     pagecolor="#ffffff"
     bordercolor="#999999"
     borderopacity="1"
     inkscape:showpageshadow="0"
     inkscape:pageopacity="0"
     inkscape:pagecheckerboard="0"
     inkscape:deskcolor="#d1d1d1"
     showgrid="false"
     inkscape:zoom="1.8425299"
     inkscape:cx="-27.850467"
     inkscape:cy="213.39018"
     inkscape:window-width="1590"
     inkscape:window-height="999"
     inkscape:window-x="1920"
     inkscape:window-y="25"
     inkscape:window-maximized="0"
     inkscape:current-layer="g234"
     inkscape:document-rotation="0"
     fit-margin-top="0"
     fit-margin-left="0"
     fit-margin-right="0"
     fit-margin-bottom="0" />
  <g
     inkscape:groupmode="layer"
     inkscape:label="Image"
     id="g234"
     transform="translate(-102.30175,-84.58053)">
    <path
       style="fill:#808080;stroke:none;stroke-width:0.02668"
       d="m 111.57396,84.624869 c -2.03806,0.267601 -3.85011,0.851332 -5.49608,2.1344 -0.98028,0.764169 -1.82083,1.738896 -2.43911,2.816768 -2.03323,3.544545 -1.73871,8.077958 0.82361,11.285643 0.66868,0.83711 1.4662,1.55736 2.36254,2.14358 0.8604,0.5627 1.80776,0.99863 2.8014,1.26743 1.31273,0.35511 2.68209,0.44038 4.02868,0.2633 1.4452,-0.19001 2.86765,-0.71401 4.08204,-1.52212 2.84262,-1.89161 4.64613,-5.142567 4.56188,-8.582072 -0.1151,-4.698909 -3.56789,-8.830974 -8.21704,-9.669473 -0.79715,-0.143779 -1.69936,-0.243615 -2.50792,-0.137456 m 0.21344,0.263118 c 0.76489,-0.09026 1.59592,0.03196 2.34784,0.167818 4.67663,0.844955 8.19311,5.352168 7.86822,10.096353 -0.24449,3.570184 -2.37379,6.810072 -5.65378,8.315912 -0.95669,0.43924 -1.97179,0.70382 -3.01484,0.8277 -1.13361,0.13465 -2.30771,0.0409 -3.41504,-0.23588 -1.11635,-0.27899 -2.20721,-0.75619 -3.14824,-1.42196 -1.34406,-0.95093 -2.45341,-2.19393 -3.19173,-3.670532 -1.92742,-3.85486 -1.02176,-8.680686 2.17789,-11.574585 1.24457,-1.125656 2.76874,-1.907327 4.4022,-2.281647 0.53976,-0.123689 1.08102,-0.15872 1.62748,-0.223179 m -4.34884,13.919331 c 0.41383,0.413833 1.19681,1.038039 1.11282,1.707522 -0.0547,0.43614 -0.67516,0.72044 -0.49523,1.17381 0.0584,0.14727 0.20957,0.17742 0.29748,0.29639 0.12457,0.16859 0.14122,0.35028 0.31232,0.49851 0.2197,0.19037 0.45905,0.15664 0.69357,0.27313 0.11752,0.0584 0.19289,0.17083 0.32016,0.21701 0.24401,0.0885 0.47674,0.002 0.72036,0.0308 0.17945,0.0212 0.3506,0.0903 0.5336,0.0949 0.28414,0.007 0.57092,-0.0815 0.85376,-0.10091 0.4482,-0.0307 0.91139,-0.008 1.36068,-0.002 0.56407,0.007 1.14769,0.0426 1.70752,0.11793 0.14799,0.0199 0.51338,0.13687 0.6238,0.004 0.1127,-0.1358 -0.22317,-0.63026 -0.27685,-0.78882 -0.1981,-0.58493 -0.18983,-1.20698 0.0266,-1.78756 0.75993,0.18092 2.05532,-0.0207 2.42468,-0.800401 0.15832,-0.334221 0.0563,-0.613774 0.0529,-0.96048 -10e-4,-0.121181 0.0171,-0.242335 0.0873,-0.344359 0.1092,-0.158613 0.48496,-0.390409 0.15653,-0.562761 0.33142,-0.372693 -0.16648,-0.64547 -0.007,-1.039373 0.16424,-0.405323 0.92857,-0.186894 1.07931,-0.668147 0.1124,-0.358846 -0.25205,-0.904933 -0.38998,-1.227281 -0.17326,-0.404842 -0.41947,-0.8274 -0.52875,-1.25396 -0.0517,-0.201887 0.006,-0.411992 -0.0563,-0.61364 -0.0943,-0.305726 -0.29433,-0.596991 -0.36255,-0.90712 -0.0298,-0.135214 0.10421,-0.22019 0.12553,-0.34684 0.0232,-0.137589 -0.0865,-0.270775 -0.0573,-0.399159 0.0279,-0.122675 0.16219,-0.176088 0.12494,-0.321201 -0.0914,-0.356258 -0.65411,-0.490939 -0.73554,-0.88044 -0.0534,-0.255247 0.34294,-0.449531 0.0766,-0.74133 -0.3307,-0.362315 -0.71444,0.195537 -1.08337,-0.0057 v -0.02668 c 0.1687,-0.124542 0.25135,-0.305513 0.29348,-0.50692 -0.34252,-0.128277 -0.67743,0.0029 -1.01384,0.08004 l 0.1278,-0.42688 0.0348,-0.34684 1.11805,-1.25396 c -3.33631,-1.949161 -7.6506,-1.386 -10.45856,1.229654 -0.68154,0.634904 -1.2418,1.397766 -1.68901,2.212066 -0.42218,0.768731 -0.73105,1.617902 -0.89199,2.48124 -0.19076,1.023392 -0.2211,2.066873 -0.0487,3.094881 0.3073,1.832542 1.20898,3.56821 2.5231,4.882331 0.32041,0.3204 0.67202,0.62034 1.04042,0.88428 0.0966,0.0692 0.29049,0.25205 0.42077,0.18113 0.20928,-0.11392 -0.25082,-0.62343 -0.31765,-0.77182 -0.26496,-0.58822 -0.33425,-1.228722 -0.11126,-1.840921 0.0696,-0.190976 0.18895,-0.351776 0.27494,-0.5336 m -0.4002,2.481241 c -0.9163,-0.52907 -1.6568,-1.634338 -2.16858,-2.534601 -1.92589,-3.387827 -1.20815,-7.754383 1.63498,-10.402827 0.89845,-0.836898 1.9864,-1.456087 3.14824,-1.843294 1.63826,-0.54598 3.41832,-0.532373 5.0692,-0.05712 0.39374,0.113337 0.77335,0.260317 1.14724,0.426933 0.0857,0.03821 0.3335,0.114858 0.34895,0.222725 0.0137,0.09543 -0.13583,0.201407 -0.19341,0.262264 -0.18953,0.200421 -0.37314,0.3998 -0.54907,0.6126 -0.0617,0.0746 -0.13666,0.214294 -0.24783,0.210585 -0.24642,-0.0082 -0.56167,-0.221977 -0.79936,-0.299429 -0.47621,-0.155225 -0.97102,-0.244976 -1.4674,-0.303726 -2.11853,-0.250818 -4.29148,0.645496 -5.76248,2.15345 -1.85359,1.90015 -2.44136,4.798452 -1.55606,7.283641 0.18513,0.519673 0.4407,1.009064 0.74637,1.4674 0.14402,0.215974 0.41821,0.4538 0.5062,0.69368 0.0748,0.203728 -0.13956,0.64651 -0.14943,0.880439 -0.019,0.45137 0.17246,0.81067 0.29244,1.22728 m 5.2827,-13.954162 h 0.18676 l 0.08,-1.01384 c -0.29442,0.0097 -0.25621,0.767077 -0.2668,1.01384 m -1.0672,0.08004 c -0.006,-0.134894 -0.0324,-0.267921 -0.0587,-0.4002 l -0.0534,-0.2668 c -0.0104,-0.052 -0.10955,-0.512843 -0.21832,-0.281901 -0.0312,0.06625 0.002,0.161387 0.0156,0.228541 0.0349,0.176168 0.0316,0.569084 0.1544,0.703205 0.0416,0.04541 0.10819,0.02527 0.16043,0.01716 m 2.74804,-0.9338 -0.4002,0.96048 0.18676,0.05336 0.37352,-0.96048 -0.16008,-0.05336 m -4.58896,0.34684 c 0.0827,0.242841 0.31223,0.949248 0.61364,0.88044 -0.0415,-0.23281 -0.34065,-1.009731 -0.61364,-0.88044 m 5.25596,0.90712 c 0.27053,0.105439 0.7107,-0.568498 0.8004,-0.8004 -0.28134,-0.09341 -0.71732,0.554063 -0.8004,0.8004 m -6.64332,-0.2668 c 0.0343,0.144365 0.13404,0.236918 0.22881,0.34684 l 0.18676,0.21344 c 0.0348,0.04029 0.34217,0.395638 0.35369,0.157065 0.004,-0.08887 -0.10127,-0.177235 -0.15429,-0.237105 -0.14946,-0.168778 -0.35887,-0.554277 -0.61497,-0.48024 m 7.0702,0.98716 c -0.1112,0.06558 -0.26976,0.209945 -0.4002,0.214561 -0.14928,0.0053 -0.33889,-0.114484 -0.48024,-0.161174 -0.31314,-0.103465 -0.63469,-0.178303 -0.96048,-0.228835 -0.94872,-0.147113 -1.93734,-0.06729 -2.85476,0.213734 -0.6654,0.203835 -1.30786,0.533733 -1.8676,0.945779 -2.91983,2.149501 -3.50399,6.356564 -1.22728,9.181016 v 0.02668 l -0.2668,0.29348 c -0.41909,-0.633677 -0.83765,-1.200867 -1.10922,-1.92096 -0.75406,-1.999506 -0.47814,-4.320773 0.67412,-6.109721 1.35196,-2.098996 3.85307,-3.293833 6.33138,-3.046029 0.52792,0.0528 1.04417,0.153303 1.54744,0.324749 0.19732,0.06723 0.45084,0.135188 0.61364,0.26672 m -7.52376,0.61364 h 0.0267 l 0.10672,-0.16008 c -0.2287,-0.141137 -0.44601,-0.304099 -0.667,-0.457215 -0.0631,-0.0437 -0.18185,-0.134681 -0.24674,-0.04111 -0.0613,0.08831 0.0827,0.171659 0.14004,0.212293 0.212,0.150288 0.43425,0.287744 0.6403,0.446116 m 7.76388,-0.56028 c -0.005,0.646857 -0.64752,1.183712 -1.2006,1.41404 0.0511,-0.581677 0.63362,-1.278105 1.2006,-1.41404 m -0.90712,0.45356 -0.32016,0.61364 h -0.0267 l -0.0267,-0.42688 c -0.54921,0.09797 -0.96179,0.766837 -1.12056,1.25396 h -0.0267 l -0.0534,-0.4002 c -0.51018,0.150128 -0.73762,0.653367 -0.9338,1.09388 h -0.0267 c -0.0323,-0.355457 -0.32016,-0.120914 -0.48013,0.02908 -0.27734,0.260024 -0.45639,0.608625 -0.50703,0.984759 h -0.0267 c -0.0586,-0.389448 -0.29666,-0.149888 -0.48013,0.02772 -0.28231,0.27331 -0.38393,0.585146 -0.45367,0.959439 h -0.0267 c -0.15725,-0.357458 -0.36221,-0.119926 -0.52944,0.10672 -0.28422,0.385206 -0.3256,0.713397 -0.32432,1.17392 h -0.0267 l -0.24012,-0.4002 c -0.54782,0.385953 -0.58325,0.94658 -0.50692,1.547441 h -0.0267 c -0.23046,-0.398706 -0.43726,-0.325603 -0.6194,0.05336 -0.16371,0.340623 -0.22334,0.696774 -0.15432,1.0672 l -0.29348,-0.21344 -0.32016,0.82708 c -0.49974,-0.603128 -0.62567,-1.651653 -0.69822,-2.401201 -0.3367,-3.479339 2.71613,-6.32316 6.08758,-6.32316 0.73354,0 1.49032,0.113177 2.16108,0.42688 m 1.7342,0.08004 c -0.14703,0.581677 -0.95787,0.857415 -1.49408,0.88044 0.14845,-0.570819 0.96742,-0.878999 1.49408,-0.88044 m -2.24112,0.2668 -0.0323,0.72036 -0.50028,0.56028 -0.29452,0.32016 c -0.11691,-0.629755 0.24631,-1.324448 0.82708,-1.6008 m -8.2708,0.37352 c 0.21755,0.07361 0.99722,0.522314 1.0672,0.18676 -0.22785,-0.06219 -0.97278,-0.512016 -1.0672,-0.18676 m 11.23228,-0.0691 c 0.10955,-0.01913 0.2311,0.05325 0.22286,0.175848 -0.011,0.162935 -0.24858,0.256181 -0.1988,0.426853 0.0785,0.269175 0.38847,0.531092 0.58945,0.709048 0.0927,0.08207 0.21248,0.197272 0.11741,0.325763 -0.12403,0.167657 -0.43872,0.178916 -0.6242,0.230462 -0.47461,0.131932 -0.93698,0.291318 -1.38736,0.491899 -1.0529,0.468901 -1.78647,1.238539 -2.4468,2.164788 -0.26069,0.365677 -0.49774,0.746614 -0.74592,1.12056 -0.0693,0.104426 -0.18793,0.357513 -0.32704,0.375628 -0.14252,0.01854 -0.36314,-0.273683 -0.30743,-0.402334 0.19866,-0.45887 0.56073,-0.902078 0.85042,-1.307294 0.85333,-1.193556 1.84866,-2.28805 2.92341,-3.284014 0.28345,-0.262665 0.57415,-0.517886 0.88044,-0.753977 0.13084,-0.100824 0.28507,-0.243829 0.45356,-0.27323 m -0.8004,0.229181 c -0.0818,0.268428 -0.49556,0.500784 -0.69368,0.69408 -0.54419,0.530852 -1.07355,1.075204 -1.56686,1.65376 -0.55505,0.650912 -1.07606,1.329438 -1.57007,2.02768 -0.2128,0.300817 -0.38707,0.646857 -0.62231,0.929852 -0.10242,0.123208 -0.31202,0.08682 -0.4562,0.131319 -0.20872,0.06443 -0.38091,0.222378 -0.49444,0.40623 -0.15559,0.252045 -0.20279,0.562547 -0.16485,0.85376 0.0173,0.132679 0.11032,0.294867 0.0829,0.42688 -0.0518,0.249618 -0.35057,0.394704 -0.46415,0.61364 0.16531,-0.009 0.28169,-0.0996 0.39566,-0.215815 0.0544,-0.05547 0.12356,-0.173633 0.21691,-0.148474 0.27715,0.07468 -0.0137,0.345959 -0.10565,0.424879 -0.35455,0.304152 -0.74083,0.633223 -1.17392,0.81985 v 0.02668 c 0.67956,-0.0056 1.03574,-0.614521 1.6008,-0.85376 0.20645,0.353696 0.12734,0.624045 0.16461,1.01384 0.0343,0.358952 0.12631,0.71337 0.19261,1.0672 0.036,0.191909 0.11896,0.533223 -0.0697,0.673883 -0.1123,0.0837 -0.33892,0.0692 -0.47531,0.0725 -0.36453,0.009 -0.7325,-0.0269 -1.09281,0.0387 -0.0926,0.0169 -0.4919,0.0739 -0.46341,0.22136 0.0202,0.10443 0.46098,-0.0167 0.54345,-0.0268 0.37563,-0.0461 0.7457,0.007 1.12056,0.008 0.20079,8e-5 0.40604,0.003 0.54987,-0.16288 0.17614,-0.2028 0.1325,-0.50097 0.0926,-0.744243 -0.0838,-0.511109 -0.21557,-1.027767 -0.21557,-1.54744 l 0.34684,0.10672 c 0.12513,0.664198 0.43646,1.318952 0.45316,2.001003 0.006,0.22539 0.0153,0.56978 -0.1913,0.71652 -0.19735,0.14015 -0.51655,0.10986 -0.7421,0.0884 -0.37576,-0.0358 -0.76988,-0.08 -1.14724,-0.0845 -0.34108,-0.004 -0.67533,0.0166 -1.01384,0.0546 -0.0988,0.0111 -0.2942,0.0702 -0.38,-0.002 -0.0769,-0.0648 -0.008,-0.21704 0.0156,-0.29273 0.0722,-0.23164 0.1232,-0.45313 0.0646,-0.69368 -0.1449,-0.594273 -0.67831,-0.986042 -1.00746,-1.467402 0.41698,-0.0034 0.88535,-0.183559 1.15748,-0.507321 0.20653,-0.245669 0.52395,-0.692933 0.0164,-0.69328 v -0.02668 c 0.40111,-0.223525 0.73735,-0.627993 0.8004,-1.09388 h -0.34684 v -0.02668 c 0.45897,-0.156291 0.88612,-0.571165 0.96048,-1.0672 l -0.29348,-0.02668 v -0.02668 c 0.43374,-0.18153 0.80011,-0.578209 0.90712,-1.04052 l -0.2668,-0.02668 v -0.02668 c 0.37637,-0.08708 0.72802,-0.280353 0.96931,-0.58696 0.15288,-0.194257 0.31568,-0.408817 0.0178,-0.50692 v -0.02668 c 0.51911,-0.07665 0.99692,-0.420477 1.2006,-0.90712 l -0.29348,-0.05336 v -0.02668 c 0.57565,-0.108454 1.31015,-0.321948 1.49408,-0.96048 l -0.18676,-0.05336 c 0.26579,-0.128758 0.53443,-0.156185 0.77372,-0.355538 0.42125,-0.350895 0.71171,-1.152869 1.36068,-0.791702 m -1.12056,0.29348 c -0.26806,0.563482 -0.97745,0.836818 -1.57412,0.77372 0.18049,-0.530879 1.04268,-0.930812 1.57412,-0.77372 m -2.24112,0.05336 c 0.21595,0.679833 -0.18012,1.203188 -0.72036,1.6008 0,-0.605556 0.11856,-1.29358 0.72036,-1.6008 m -7.92396,0.85376 c 0.24585,0.08324 1.03315,0.284916 1.14724,0 -0.25213,-0.07663 -1.02177,-0.275845 -1.14724,0 m 9.0712,0.08004 c -0.11376,0.571619 -1.12985,0.867447 -1.62748,0.72036 0.31381,-0.629968 0.97547,-0.841407 1.62748,-0.72036 m -2.16108,-0.02668 c 0.20834,0.657289 -0.17729,1.125896 -0.667,1.52076 -0.12353,-0.518873 0.11646,-1.338162 0.667,-1.52076 m 5.81624,0.56028 c -0.0399,0.358259 -0.52568,0.480027 -0.82708,0.48024 2.9e-4,-0.377655 0.49846,-0.4534 0.82708,-0.48024 m -1.12056,0.2668 c -0.007,0.327791 -0.22179,0.608544 -0.5336,0.710755 -0.0758,0.02487 -0.23006,0.08004 -0.30405,0.02911 -0.076,-0.05232 -0.0217,-0.211759 -0.017,-0.286276 0.0208,-0.330485 0.57572,-0.447797 0.85469,-0.453587 m 0.4002,5.976321 v 0.02668 c 0.44841,0.163415 0.55822,-0.245697 0.9338,-0.370506 0.34561,-0.114857 0.15493,0.211253 0,0.317146 0.17777,0.07892 0.30525,0.317652 0.0267,0.36741 -0.18305,0.03268 -0.33067,-0.08893 -0.50689,-0.10061 l 0.45356,0.21344 c -0.0736,0.157598 -0.16691,0.301617 -0.18175,0.48024 -0.0381,0.459536 0.12964,0.822784 -0.29849,1.160099 -1.30161,1.025581 -3.14507,0.02689 -4.18876,-0.870088 -0.27633,-0.237505 -0.73981,-0.567377 -0.89306,-0.903651 -0.0553,-0.121421 0.0185,-0.289612 -0.0141,-0.42688 -0.11054,0.134387 -0.19162,0.334167 -0.4002,0.313303 -0.29127,-0.02913 -0.38625,-0.403562 -0.52288,-0.606784 -0.37029,-0.550781 -0.90642,-1.395684 -0.21952,-1.982751 0.3763,-0.321627 0.85832,-0.03708 1.02347,0.355271 0.0688,0.163362 0.0559,0.38646 0.16456,0.528585 0.18927,0.247643 0.37878,0.01635 0.59449,0.07726 0.10352,0.02921 0.16496,0.147967 0.24156,0.215521 0.1651,0.145619 0.43515,0.203648 0.63928,0.110428 0.42202,-0.192736 0.31749,-0.665506 0.46725,-1.011839 0.16528,-0.382217 0.5261,-0.597605 0.513,-1.0672 -0.008,-0.271389 -0.30205,-0.583011 -0.21846,-0.827053 0.0817,-0.238386 0.35605,-0.250205 0.54553,-0.376348 0.20405,-0.135855 0.29868,-0.407724 0.49035,-0.530159 0.19071,-0.121847 0.47659,-0.09877 0.68357,-0.226566 0.16806,-0.103759 0.26643,-0.32691 0.43179,-0.412606 0.13316,-0.069 0.34556,-0.01243 0.50201,-0.07852 0.0963,-0.04069 0.28465,-0.212132 0.38979,-0.159733 0.11654,0.05806 0.16833,0.311489 0.21635,0.423225 0.0995,0.231529 0.2116,0.472476 0.26229,0.72036 0.0456,0.222778 0.0238,0.449105 0.0928,0.667 0.17588,0.555665 0.44076,1.106206 0.69953,1.62748 0.0887,0.17865 0.26885,0.467807 0.13737,0.665933 -0.23099,0.347987 -0.80675,0.235798 -1.03131,0.588428 -0.12625,0.198285 0.0855,0.347587 0.0385,0.527196 -0.0255,0.0973 -0.19917,0.122648 -0.27171,0.177262 -0.30447,0.229155 -0.39975,0.389022 -0.8004,0.389022 m -6.10972,-5.789561 c 0.14722,0.523915 0.01,1.2407 -0.5336,1.49408 -0.14877,-0.529384 -0.0199,-1.247397 0.5336,-1.49408 m 1.97432,0.08004 c -0.18617,0.63269 -1.01979,0.74704 -1.57412,0.74704 0.20816,-0.70742 0.93791,-0.911656 1.57412,-0.74704 m -8.43088,0.37352 c 0.24143,0.06099 1.07547,0.02607 1.14724,-0.24012 -0.24983,-0.0687 -1.06144,-0.02551 -1.14724,0.24012 m 10.96548,-0.10672 c 0.10109,0.341984 -0.0938,0.772546 -0.4002,0.94626 -0.11358,0.06438 -0.26184,0.04701 -0.36752,0.119286 -0.1454,0.09946 -0.14471,0.307194 -0.35284,0.342304 -0.12281,0.0207 -0.34818,-0.04202 -0.29572,-0.207357 0.0582,-0.183585 0.27112,-0.348814 0.40244,-0.480133 0.12003,-0.120033 0.24001,-0.236091 0.37352,-0.34121 0.18996,-0.149568 0.40556,-0.311383 0.64032,-0.37915 m -5.49608,0.61364 c 0.35788,0.615481 0.0301,1.104285 -0.34684,1.6008 h -0.0534 c -0.19375,-0.502277 -0.17916,-1.330451 0.4002,-1.6008 m 1.97432,0.10672 c -0.24162,0.709581 -0.92871,0.88044 -1.6008,0.88044 0.20285,-0.611585 0.99506,-0.992896 1.6008,-0.88044 m 3.94864,0.74704 v 0.02668 c 0.47509,-0.02465 0.76924,-0.598459 1.25396,-0.628634 0.14423,-0.009 0.24079,0.137909 0.37352,0.175074 -0.0549,-0.302898 -0.30373,-0.341771 -0.56028,-0.257222 -0.4017,0.13236 -0.71246,0.46602 -1.0672,0.684102 m -11.63248,0.24012 c 0.28982,-0.01323 1.0633,-0.205569 1.0672,-0.5336 -0.26435,0.06265 -1.0572,0.228861 -1.0672,0.5336 m 13.01984,-0.50692 c -0.0285,0.25338 -0.29033,0.213253 -0.48024,0.302098 -0.24367,0.114004 -0.43734,0.306393 -0.667,0.442461 -0.13503,0.07999 -0.29548,0.10656 -0.42688,0.189241 0.28214,0.169018 0.85032,0.1334 1.17392,0.1334 0.0889,0 0.31194,0.03989 0.37173,-0.04277 0.0883,-0.122114 0.036,-0.560733 0.002,-0.704272 0.179,-0.058 0.16483,-0.160667 0.10672,-0.32016 h -0.08 m -3.44175,0.450012 c 0.16384,0 0.21224,0.197272 0.21334,0.323708 0.003,0.380164 -0.28156,0.512923 -0.49801,0.773827 -0.0395,0.04757 -0.19341,0.264719 -0.075,0.310822 0.10208,0.03975 0.24855,-0.224219 0.30736,-0.283208 0.14946,-0.149968 0.39259,-0.250339 0.47533,-0.454627 0.0647,-0.15984 -0.0425,-0.39321 0.0336,-0.52509 0.0411,-0.07121 0.14274,-0.06504 0.19981,-0.01905 0.0777,0.06259 0.10666,0.185799 0.13249,0.277365 0.0988,0.350816 -0.0211,0.660464 -0.24514,0.9338 -0.0901,0.109975 -0.23361,0.210372 -0.2907,0.342305 -0.12118,0.28006 0.11523,0.87996 -0.41322,0.87996 -0.60478,0 -0.45764,-0.804002 -0.48261,-1.168905 -0.0121,-0.177048 -0.0748,-0.358632 -0.0231,-0.5336 0.0458,-0.155171 0.13954,-0.295481 0.23151,-0.42688 0.0873,-0.124675 0.26026,-0.430428 0.43429,-0.430428 m 2.42791,0.430428 c 0.098,-0.191696 0.39265,-0.311969 0.58696,-0.38782 0.0677,-0.02644 0.18604,-0.07769 0.25071,-0.02054 0.0513,0.04538 0.0426,0.13356 0.0427,0.194924 5.3e-4,0.320214 -0.25933,0.268214 -0.50687,0.244656 -0.12614,-0.01201 -0.24804,-0.0079 -0.37352,-0.03122 m -7.28364,-0.29348 c 0.0875,0.151409 0.2374,0.263572 0.3038,0.42688 0.17372,0.427227 -0.17152,0.885776 -0.41052,1.2006 h -0.0534 c -0.22206,-0.416955 -0.37027,-1.358145 0.16008,-1.62748 m 2.05436,0.02668 c -0.0944,0.627487 -0.96101,1.048231 -1.54744,0.9338 0.25194,-0.68813 0.87153,-0.9338 1.54744,-0.9338 m -6.69668,1.52076 c 0.28105,-0.08956 0.95672,-0.458389 0.96048,-0.77372 -0.2466,0.03279 -0.78858,0.376802 -0.94399,0.574394 -0.0474,0.06024 -0.0285,0.130465 -0.0165,0.199326 m 4.48224,0.5336 c 0.16656,-0.489151 0.55972,-0.827507 1.0672,-0.917391 0.1016,-0.01801 0.40671,-0.09655 0.47835,0.0034 0.085,0.118672 -0.14466,0.381097 -0.21619,0.460336 -0.35229,0.390409 -0.85494,0.355805 -1.32936,0.453667 m 4.1354,-0.96048 c 0.0517,0.216935 0.0567,0.513323 -0.0364,0.720253 -0.0512,0.113817 -0.17342,0.234011 -0.30692,0.159333 -0.3084,-0.172512 0.15303,-0.786606 0.34329,-0.879586 m -4.82908,1.76088 c -0.2854,-0.610118 -0.32464,-1.078912 0.0267,-1.68084 0.61572,0.320294 0.46935,1.330452 -0.0267,1.68084 m 4.002,0.21344 h -0.0534 c -0.15378,0.163015 -0.19295,-0.130838 -0.2985,-0.219149 -0.3371,-0.282088 -0.55545,-0.507454 -0.42834,-0.981451 0.0354,-0.131932 0.12518,-0.372319 0.29956,-0.355858 0.46114,0.04354 -0.1508,1.099723 0.42728,0.942818 -0.0504,-0.07284 -0.13255,-0.147407 -0.13922,-0.24012 -0.0144,-0.19978 0.129,-0.380964 0.0644,-0.586933 -0.081,-0.258236 -0.43176,-0.320747 -0.61319,-0.130519 -0.1958,0.205303 -0.22387,0.556518 -0.18441,0.824172 0.0523,0.354924 0.29313,0.431443 0.52173,0.647631 0.0847,0.08012 0.0849,0.215254 0.1751,0.285903 0.15416,0.1207 0.26779,-0.03898 0.22894,-0.186494 m 5.49608,-1.62748 c -0.0197,0.106373 -0.0244,0.21384 -0.0431,0.32016 -0.014,0.08001 -0.0333,0.158533 -0.0358,0.24012 -0.0187,0.618576 0.79437,0.0095 1.06605,-0.05336 v -0.10672 c -0.24321,0.05088 -0.44854,0.173287 -0.667,0.284836 -0.0846,0.04319 -0.20063,0.0897 -0.27358,1.25e-4 -0.11235,-0.137936 0.0333,-0.513457 0.0335,-0.685169 h -0.08 m -12.88644,1.65416 c 0.2485,-0.115898 0.84584,-0.705152 0.74704,-0.98716 -0.24698,0.115177 -0.86203,0.706833 -0.74704,0.98716 m 3.54844,0.1334 c 0.0245,-0.534374 0.46743,-0.882815 0.96048,-0.970752 0.10576,-0.01886 0.42976,-0.105786 0.50511,-3.33e-4 0.0841,0.117712 -0.1123,0.375227 -0.17857,0.464152 -0.30175,0.405029 -0.8131,0.50692 -1.28702,0.50692 m -0.58696,0.90712 c -0.60852,-0.289772 -0.48672,-1.237526 -0.21344,-1.70752 0.70446,0.309888 0.55729,1.197425 0.21344,1.70752 m 1.62748,-0.8004 c -0.17665,0.617908 -0.76033,1.062744 -1.41404,0.90712 0.11027,-0.209545 0.19153,-0.489525 0.35562,-0.661984 0.25546,-0.268508 0.72068,-0.245136 1.05842,-0.245136 m -3.41504,0.10672 c -0.15923,0.272803 -0.61898,0.873823 -0.45356,1.17392 h 0.0534 c 0.1588,-0.272083 0.60118,-0.865339 0.45356,-1.17392 h -0.0534 m 6.37652,0.69368 c 0.29799,0.138976 0.53744,0.493366 0.77372,0.719319 0.40764,0.389768 0.87121,0.735248 1.36068,1.014849 0.20314,0.11606 0.41941,0.2076 0.64032,0.28433 0.0759,0.0263 0.21304,0.0452 0.25031,0.12708 0.0466,0.10245 -0.0403,0.26245 -0.0666,0.36234 -0.0724,0.27419 -0.1601,0.56778 -0.1565,0.85376 0.004,0.28182 0.0918,0.56476 0.18769,0.82708 0.0251,0.0688 0.12201,0.23243 0.0576,0.29951 -0.0925,0.0964 -0.54774,-0.0617 -0.67266,-0.0785 -0.61916,-0.0834 -1.27504,-0.0443 -1.89428,0.0146 -0.12043,0.0115 -0.6492,0.10766 -0.715,-0.006 -0.042,-0.0728 0.0197,-0.20864 0.038,-0.28262 0.0918,-0.3708 0.58507,-0.31029 0.65195,-0.74704 0.0415,-0.27139 -0.14025,-0.44601 -0.1613,-0.69368 -0.0125,-0.14709 0.0929,-0.30349 0.10389,-0.45356 0.0248,-0.33777 -0.0383,-0.662143 -0.12393,-0.987158 -0.0898,-0.341184 -0.36861,-0.909201 -0.27387,-1.25396 m -5.7362,0.42688 c -0.0422,0.312956 -0.14034,0.627353 -0.21683,0.9338 -0.0384,0.15405 -0.0742,0.313458 0.11011,0.373518 0.0665,-0.322533 0.15183,-0.640665 0.23014,-0.960478 0.0373,-0.152423 0.0518,-0.294814 -0.12342,-0.34684 m 2.16108,2.854758 c -0.0448,-0.002 -0.0903,-0.002 -0.13249,-0.0198 -0.38187,-0.16523 0.28683,-0.72855 0.17048,-0.19364 -0.0154,0.0709 -0.0287,0.14154 -0.038,0.21344 m 1.33397,-0.36125 c 0.0718,-4.2e-4 0.15862,0.0169 0.17593,0.0983 0.041,0.19279 -0.0684,0.43811 -0.0684,0.63648 0,0.24431 0.10333,0.41877 0.17873,0.63981 0.0285,0.0837 -0.0129,0.13786 -0.1,0.14677 -0.65299,0.0667 -0.83962,-1.51759 -0.18628,-1.52135 m 0.64152,-6.9e-4 c 0.12628,-0.0368 0.47477,-0.0438 0.55876,0.0769 0.10768,0.1548 0.0842,0.38504 0.2041,0.55179 0.10977,0.15256 0.34634,0.20987 0.43545,0.35728 0.13668,0.22619 -0.2219,0.51521 -0.39908,0.57065 -0.63378,0.1984 -0.98689,-0.2284 -1.01581,-0.82118 -0.01,-0.1945 -0.0235,-0.66553 0.21658,-0.73546 m 1.65184,0.0316 c 0.156,-0.005 0.17742,0.21635 0.17195,0.33035 -0.011,0.22958 -0.14684,0.39337 -0.38424,0.39873 -0.21982,0.005 -0.70745,-0.3661 -0.50615,-0.62276 0.036,-0.0459 0.10704,-0.0429 0.15934,-0.0416 0.20146,0.005 0.36882,-0.0588 0.5591,-0.0647 m -2.85361,1.07739 c -0.48718,0.14266 -0.77908,-0.57146 -0.51074,-0.92636 0.0703,-0.0929 0.40044,-0.18395 0.46794,-0.0492 0.0435,0.0869 -0.005,0.21675 -0.01,0.30858 -0.01,0.2287 0.009,0.44305 0.0523,0.667 z"
       id="path346" />
  </g>
</svg>
