<?xml version="1.0" encoding="UTF-8" standalone="no"?>
<svg
   version="1.1"
   id="svg228"
   width="26"
   height="26.058262"
   viewBox="0 0 26 26.058262"
   sodipodi:docname="Minerva.svg"
   inkscape:export-filename="Minerva.png"
   inkscape:export-xdpi="300"
   inkscape:export-ydpi="300"
   inkscape:version="1.3.2 (091e20e, 2023-11-25)"
   xml:space="preserve"
   xmlns:inkscape="http://www.inkscape.org/namespaces/inkscape"
   xmlns:sodipodi="http://sodipodi.sourceforge.net/DTD/sodipodi-0.dtd"
   xmlns="http://www.w3.org/2000/svg"
   xmlns:svg="http://www.w3.org/2000/svg"
   xmlns:rdf="http://www.w3.org/1999/02/22-rdf-syntax-ns#"
   xmlns:cc="http://creativecommons.org/ns#"
   xmlns:dc="http://purl.org/dc/elements/1.1/"><metadata
     id="metadata7"><rdf:RDF><cc:Work
         rdf:about=""><dc:format>image/svg+xml</dc:format><dc:type
           rdf:resource="http://purl.org/dc/dcmitype/StillImage" /></cc:Work></rdf:RDF></metadata><defs
     id="defs232" /><sodipodi:namedview
     id="namedview230"
     pagecolor="#ffffff"
     bordercolor="#999999"
     borderopacity="1"
     inkscape:showpageshadow="0"
     inkscape:pageopacity="0"
     inkscape:pagecheckerboard="0"
     inkscape:deskcolor="#d1d1d1"
     showgrid="false"
     inkscape:zoom="0.87409035"
     inkscape:cx="267.70688"
     inkscape:cy="145.86593"
     inkscape:window-width="1416"
     inkscape:window-height="862"
     inkscape:window-x="61"
     inkscape:window-y="38"
     inkscape:window-maximized="0"
     inkscape:current-layer="g234"
     inkscape:document-rotation="0" /><g
     inkscape:groupmode="layer"
     inkscape:label="Image"
     id="g234"
     transform="translate(-102.30175,-84.58053)"><path
       style="fill:#9ea3ad;fill-opacity:1;stroke:none;stroke-width:0.034684"
       d="m 114.35562,84.638171 c -2.64947,0.34788 -5.00514,1.106732 -7.1449,2.77472 -1.27436,0.993419 -2.36708,2.260565 -3.17085,3.661798 -2.6432,4.607909 -2.26032,10.501341 1.0707,14.671331 0.86928,1.08825 1.90606,2.02458 3.0713,2.78665 1.11852,0.73152 2.35008,1.29823 3.64182,1.64767 1.70656,0.46164 3.48671,0.57249 5.23728,0.34229 1.87877,-0.24702 3.72794,-0.92821 5.30666,-1.97875 3.6954,-2.4591 6.03997,-6.68534 5.93044,-11.156702 -0.14963,-6.108581 -4.63826,-11.480266 -10.68215,-12.570315 -1.03629,-0.186912 -2.20917,-0.3167 -3.2603,-0.178692 m 0.27747,0.342054 c 0.99436,-0.117336 2.0747,0.04155 3.0522,0.218162 6.07962,1.098442 10.65104,6.957819 10.22869,13.125259 -0.31784,4.641244 -3.08594,8.853094 -7.34992,10.810694 -1.2437,0.571 -2.56332,0.91496 -3.91929,1.076 -1.47369,0.17505 -3.00003,0.0532 -4.43956,-0.30664 -1.45124,-0.36269 -2.86937,-0.98305 -4.09271,-1.84856 -1.74727,-1.2362 -3.18944,-2.8521 -4.14925,-4.77168 -2.50564,-5.01132 -1.32829,-11.284893 2.83126,-15.046963 1.61794,-1.463352 3.59937,-2.479524 5.72286,-2.966141 0.70169,-0.160795 1.40533,-0.206335 2.11572,-0.290131 m -5.65349,18.095125 c 0.53798,0.53799 1.55586,1.34945 1.44667,2.21978 -0.0711,0.56698 -0.87771,0.93657 -0.6438,1.52596 0.076,0.19145 0.27244,0.23065 0.38672,0.3853 0.16194,0.21917 0.18359,0.45537 0.40601,0.64807 0.28563,0.24747 0.59678,0.20363 0.90165,0.35506 0.15278,0.0759 0.25076,0.22208 0.41621,0.28212 0.31722,0.11505 0.61977,0.003 0.93647,0.04 0.23328,0.0276 0.45578,0.11744 0.69368,0.12333 0.36938,0.009 0.7422,-0.10596 1.10988,-0.13117 0.58266,-0.0399 1.18481,-0.01 1.76889,-0.003 0.73329,0.009 1.492,0.0554 2.21977,0.1533 0.1924,0.0259 0.66739,0.17793 0.81095,0.005 0.14651,-0.17654 -0.29013,-0.81934 -0.35992,-1.02547 -0.25752,-0.76041 -0.24677,-1.56907 0.0346,-2.32383 0.9879,0.2352 2.67192,-0.0269 3.15208,-1.04051 0.20582,-0.43449 0.0733,-0.79791 0.0687,-1.24863 -0.002,-0.15753 0.0222,-0.31503 0.11345,-0.44767 0.14196,-0.20619 0.63045,-0.50753 0.20349,-0.73158 0.43084,-0.48451 -0.21643,-0.83911 -0.009,-1.35119 0.21351,-0.526919 1.20714,-0.24296 1.40311,-0.868591 0.14612,-0.4665 -0.32766,-1.176412 -0.50698,-1.595464 -0.22524,-0.526295 -0.5453,-1.07562 -0.68737,-1.630148 -0.0673,-0.262454 0.008,-0.535591 -0.0731,-0.797732 -0.12257,-0.397444 -0.38263,-0.77609 -0.47132,-1.179256 -0.0387,-0.175779 0.13548,-0.286247 0.16319,-0.450892 0.0301,-0.178866 -0.11244,-0.352008 -0.0745,-0.518908 0.0363,-0.159477 0.21085,-0.228914 0.16243,-0.41756 -0.11883,-0.463136 -0.85035,-0.638221 -0.9562,-1.144573 -0.0694,-0.331821 0.44582,-0.58439 0.0996,-0.963729 -0.4299,-0.471009 -0.92876,0.254199 -1.40837,-0.0074 v -0.03468 c 0.2193,-0.161905 0.32675,-0.397166 0.38152,-0.658996 -0.44527,-0.16676 -0.88066,0.0038 -1.31799,0.104052 l 0.16613,-0.554944 0.0452,-0.450892 1.45347,-1.630148 c -4.3372,-2.533909 -9.94578,-1.801799 -13.59613,1.598551 -0.886,0.825375 -1.61433,1.817095 -2.1957,2.875685 -0.54884,0.999351 -0.95038,2.103273 -1.15959,3.225613 -0.24799,1.330409 -0.28743,2.686935 -0.0633,4.023344 0.39949,2.382308 1.57167,4.638678 3.28003,6.347038 0.41652,0.41652 0.87362,0.80644 1.35254,1.14956 0.12559,0.09 0.37764,0.32766 0.547,0.23547 0.27206,-0.1481 -0.32606,-0.81046 -0.41295,-1.00337 -0.34444,-0.76468 -0.43452,-1.59734 -0.14463,-2.39319 0.0905,-0.24827 0.24563,-0.45731 0.35742,-0.69368 m -0.52026,3.22561 c -1.19119,-0.68779 -2.15384,-2.12464 -2.81915,-3.29498 -2.50366,-4.40418 -1.57059,-10.080703 2.12547,-13.52368 1.16798,-1.087968 2.58233,-1.892914 4.09271,-2.396283 2.12974,-0.709773 4.44382,-0.692085 6.58996,-0.07426 0.51187,0.147337 1.00535,0.338411 1.49142,0.555013 0.11144,0.04967 0.43355,0.149315 0.45363,0.289542 0.0178,0.124065 -0.17658,0.26183 -0.25143,0.340944 -0.24639,0.260546 -0.48509,0.51974 -0.71379,0.796379 -0.0802,0.09698 -0.17765,0.278582 -0.32218,0.273761 -0.32034,-0.01065 -0.73017,-0.288571 -1.03917,-0.389259 -0.61907,-0.201791 -1.26232,-0.318468 -1.90762,-0.394842 -2.75408,-0.326065 -5.57892,0.839145 -7.49122,2.799484 -2.40968,2.470195 -3.17376,6.237988 -2.02288,9.468741 0.24067,0.67557 0.57291,1.31178 0.97029,1.90762 0.18722,0.28076 0.54367,0.58994 0.65805,0.90178 0.0972,0.26485 -0.18143,0.84046 -0.19426,1.14457 -0.0247,0.58679 0.2242,1.05388 0.38017,1.59547 m 6.86743,-18.139741 h 0.24279 l 0.10405,-1.317992 c -0.38273,0.01256 -0.33307,0.9972 -0.34684,1.317992 m -1.38736,0.104052 c -0.008,-0.175362 -0.0421,-0.348297 -0.0763,-0.52026 l -0.0694,-0.34684 c -0.0135,-0.0676 -0.14241,-0.666696 -0.28382,-0.366471 -0.0405,0.08612 0.003,0.209803 0.0202,0.297103 0.0454,0.229019 0.0411,0.73981 0.20072,0.914166 0.0541,0.05903 0.14064,0.03285 0.20855,0.0223 m 3.57246,-1.21394 -0.52026,1.248624 0.24278,0.06937 0.48558,-1.248624 -0.2081,-0.06937 m -5.96565,0.450892 c 0.10748,0.315694 0.4059,1.234022 0.79773,1.144572 -0.054,-0.302652 -0.44285,-1.312651 -0.79773,-1.144572 m 6.83275,1.179256 c 0.35169,0.137071 0.92391,-0.739047 1.04052,-1.04052 -0.36575,-0.121429 -0.93252,0.720283 -1.04052,1.04052 m -8.63632,-0.34684 c 0.0446,0.187675 0.17425,0.307994 0.29745,0.450892 l 0.24279,0.277472 c 0.0452,0.05237 0.44482,0.514329 0.4598,0.204185 0.006,-0.115532 -0.13166,-0.230406 -0.20057,-0.308237 -0.1943,-0.219411 -0.46654,-0.72056 -0.79947,-0.624312 m 9.19126,1.283308 c -0.14456,0.08525 -0.35069,0.272929 -0.52026,0.278929 -0.19406,0.0068 -0.44056,-0.148829 -0.62431,-0.209526 -0.40709,-0.134505 -0.8251,-0.231793 -1.24863,-0.297485 -1.23332,-0.191247 -2.51854,-0.08747 -3.71118,0.277854 -0.86502,0.264986 -1.70021,0.693853 -2.42788,1.229513 -3.79579,2.794351 -4.55519,8.263533 -1.59547,11.93532 v 0.0347 l -0.34684,0.38153 c -0.54482,-0.82378 -1.08894,-1.56113 -1.44199,-2.49725 -0.98027,-2.599358 -0.62157,-5.617005 0.87636,-7.942637 1.75755,-2.728694 5.009,-4.281982 8.2308,-3.959837 0.68629,0.06864 1.35742,0.199294 2.01167,0.422173 0.25652,0.0874 0.58609,0.175744 0.79773,0.346736 m -9.78089,0.797732 h 0.0347 l 0.13873,-0.208104 c -0.29731,-0.183478 -0.57981,-0.395328 -0.8671,-0.594379 -0.082,-0.05681 -0.23641,-0.175085 -0.32076,-0.05345 -0.0796,0.114804 0.10752,0.223156 0.18206,0.27598 0.2756,0.195375 0.56452,0.374067 0.83238,0.579951 m 10.09305,-0.728364 c -0.007,0.840914 -0.84178,1.538825 -1.56078,1.838252 0.0665,-0.75618 0.82371,-1.661537 1.56078,-1.838252 m -1.17926,0.589628 -0.41621,0.797732 h -0.0347 l -0.0347,-0.554944 c -0.71397,0.12736 -1.25032,0.996888 -1.45672,1.630148 h -0.0347 l -0.0694,-0.52026 c -0.66322,0.195167 -0.9589,0.849377 -1.21394,1.422045 h -0.0347 c -0.042,-0.462095 -0.41621,-0.157188 -0.62417,0.03781 -0.36054,0.33803 -0.59331,0.791212 -0.65914,1.280187 h -0.0347 c -0.0762,-0.506283 -0.38565,-0.194855 -0.62418,0.03604 -0.36699,0.355303 -0.4991,0.76069 -0.58976,1.247272 h -0.0347 c -0.20442,-0.464697 -0.47087,-0.155905 -0.68827,0.138736 -0.36948,0.500767 -0.42328,0.927415 -0.42161,1.526096 h -0.0347 l -0.31215,-0.52026 c -0.71217,0.501739 -0.75823,1.230554 -0.659,2.011672 h -0.0347 c -0.29961,-0.518318 -0.56844,-0.423284 -0.80523,0.06937 -0.21282,0.442811 -0.29034,0.905807 -0.20061,1.387357 l -0.38152,-0.277469 -0.41621,1.075199 c -0.64967,-0.78406 -0.81338,-2.147143 -0.90768,-3.121555 -0.43772,-4.523141 3.53097,-8.220109 7.91385,-8.220109 0.9536,0 1.93741,0.14713 2.8094,0.554944 m 2.25446,0.104052 c -0.19114,0.756181 -1.24523,1.11464 -1.9423,1.144572 0.19298,-0.742064 1.25764,-1.142699 1.9423,-1.144572 m -2.91346,0.34684 -0.042,0.936468 -0.65036,0.728364 -0.38288,0.416208 c -0.15199,-0.818681 0.3202,-1.721783 1.0752,-2.08104 m -10.75204,0.485576 c 0.28282,0.09569 1.29639,0.679009 1.38736,0.242788 -0.2962,-0.08085 -1.26461,-0.66562 -1.38736,-0.242788 m 14.60197,-0.08983 c 0.14241,-0.02487 0.30043,0.06923 0.28971,0.228602 -0.0143,0.211815 -0.32315,0.333036 -0.25843,0.554909 0.10208,0.349927 0.505,0.69042 0.76628,0.921762 0.12056,0.106688 0.27622,0.256454 0.15264,0.423492 -0.16124,0.217954 -0.57034,0.232591 -0.81147,0.299601 -0.61699,0.171512 -1.21806,0.378714 -1.80356,0.639469 -1.36877,0.609571 -2.32241,1.6101 -3.18084,2.814225 -0.3389,0.475379 -0.64706,0.970597 -0.96969,1.456728 -0.0901,0.135753 -0.24432,0.464766 -0.42516,0.488316 -0.18528,0.02411 -0.47209,-0.355789 -0.39966,-0.523035 0.25825,-0.59653 0.72895,-1.172701 1.10555,-1.699481 1.10933,-1.551624 2.40325,-2.974466 3.80043,-4.269219 0.36848,-0.341464 0.7464,-0.673252 1.14457,-0.98017 0.17009,-0.131071 0.3706,-0.316977 0.58963,-0.355199 m -1.04052,0.297935 c -0.10634,0.348956 -0.64422,0.651019 -0.90179,0.902305 -0.70745,0.690107 -1.39561,1.397765 -2.03692,2.149888 -0.72156,0.846185 -1.39887,1.728269 -2.04108,2.635984 -0.27664,0.391062 -0.5032,0.840913 -0.80901,1.208807 -0.13315,0.16017 -0.40563,0.112861 -0.59306,0.170714 -0.27133,0.08376 -0.49518,0.289092 -0.64276,0.528099 -0.20228,0.32766 -0.26364,0.731312 -0.21431,1.10989 0.0225,0.17248 0.14341,0.38332 0.10779,0.55494 -0.0673,0.3245 -0.45574,0.51311 -0.60339,0.79773 0.2149,-0.0118 0.36619,-0.12947 0.51436,-0.28056 0.0708,-0.0721 0.16062,-0.22572 0.28198,-0.19301 0.3603,0.0971 -0.0178,0.44974 -0.13735,0.55234 -0.46091,0.3954 -0.96307,0.82319 -1.52609,1.0658 v 0.0347 c 0.88343,-0.007 1.34646,-0.79888 2.08104,-1.10989 0.26838,0.4598 0.16554,0.81126 0.214,1.31799 0.0446,0.46664 0.16419,0.92738 0.25038,1.38736 0.0467,0.24948 0.15466,0.6932 -0.0907,0.87605 -0.14599,0.1088 -0.4406,0.09 -0.6179,0.0942 -0.47389,0.0112 -0.95225,-0.0349 -1.42066,0.0502 -0.12035,0.0219 -0.63947,0.0961 -0.60242,0.28778 0.0262,0.13575 0.59927,-0.0217 0.70648,-0.0349 0.48831,-0.06 0.96941,0.01 1.45672,0.01 0.26104,1.1e-4 0.52786,0.004 0.71484,-0.21175 0.22898,-0.26363 0.17224,-0.65126 0.12035,-0.96751 -0.10897,-0.66444 -0.28024,-1.33609 -0.28024,-2.01167 l 0.45089,0.13874 c 0.16267,0.86346 0.5674,1.71464 0.58911,2.6013 0.007,0.29301 0.0199,0.74071 -0.24869,0.93147 -0.25655,0.1822 -0.67151,0.14283 -0.96473,0.11494 -0.48849,-0.0465 -1.00084,-0.10398 -1.49141,-0.10981 -0.4434,-0.005 -0.87793,0.0216 -1.318,0.071 -0.12847,0.0144 -0.38246,0.0913 -0.494,-0.003 -0.1,-0.0842 -0.0104,-0.28215 0.0203,-0.38055 0.0938,-0.30113 0.16018,-0.58907 0.0839,-0.90178 -0.18837,-0.77255 -0.88181,-1.28185 -1.3097,-1.90762 0.54207,-0.004 1.15095,-0.23863 1.50473,-0.65952 0.26849,-0.31937 0.68112,-0.90081 0.0214,-0.90126 v -0.0347 c 0.52144,-0.29058 0.95857,-0.81639 1.04052,-1.422039 h -0.45089 v -0.03468 c 0.59667,-0.203179 1.15196,-0.742515 1.24863,-1.38736 L 112.448,98.4277 v -0.03468 c 0.56386,-0.23599 1.04014,-0.751672 1.17926,-1.352676 l -0.34684,-0.03468 v -0.03468 c 0.48928,-0.113209 0.94642,-0.36446 1.2601,-0.763048 0.19874,-0.252534 0.41038,-0.531463 0.0232,-0.658996 v -0.03468 c 0.67484,-0.09965 1.296,-0.54662 1.56078,-1.179256 l -0.38153,-0.06937 v -0.03468 c 0.74834,-0.140991 1.70319,-0.418532 1.94231,-1.248624 l -0.24279,-0.06937 c 0.34552,-0.167385 0.69475,-0.203041 1.00583,-0.462199 0.54763,-0.456164 0.92523,-1.498731 1.76889,-1.029214 m -1.45673,0.381525 c -0.34847,0.732526 -1.27068,1.087863 -2.04636,1.005836 0.23464,-0.690143 1.35549,-1.210056 2.04636,-1.005836 m -2.91346,0.06937 c 0.28074,0.883783 -0.23415,1.564144 -0.93646,2.08104 0,-0.787223 0.15413,-1.681654 0.93646,-2.08104 m -10.30115,1.109888 c 0.31962,0.108214 1.34311,0.37039 1.49142,0 -0.32777,-0.09961 -1.3283,-0.358598 -1.49142,0 m 11.79257,0.104052 c -0.1479,0.743104 -1.4688,1.127681 -2.11573,0.936468 0.40795,-0.818959 1.26812,-1.09383 2.11573,-0.936468 m -2.80941,-0.03468 c 0.27085,0.854475 -0.23047,1.463665 -0.8671,1.976988 -0.16059,-0.674535 0.1514,-1.739611 0.8671,-1.976988 m 7.56111,0.728364 c -0.0519,0.465736 -0.68337,0.624034 -1.0752,0.624312 3.8e-4,-0.490952 0.648,-0.58942 1.0752,-0.624312 m -1.45672,0.34684 c -0.009,0.426127 -0.28833,0.791107 -0.69368,0.923982 -0.0986,0.03233 -0.29908,0.104052 -0.39526,0.03784 -0.0988,-0.06802 -0.0282,-0.275287 -0.0222,-0.37216 0.027,-0.42963 0.74845,-0.582136 1.11111,-0.589662 m 0.52026,7.769214 v 0.0347 c 0.58293,0.21244 0.72569,-0.3194 1.21394,-0.48165 0.44929,-0.14932 0.20141,0.27463 0,0.41229 0.2311,0.10259 0.39682,0.41294 0.0346,0.47763 -0.23797,0.0425 -0.42988,-0.1156 -0.65897,-0.13079 l 0.58963,0.27747 c -0.0956,0.20488 -0.21698,0.3921 -0.23627,0.62431 -0.0495,0.5974 0.16853,1.06962 -0.38804,1.50813 -1.69209,1.33325 -4.08858,0.035 -5.44539,-1.13111 -0.35922,-0.30876 -0.96175,-0.73759 -1.16098,-1.17475 -0.0719,-0.15785 0.0241,-0.3765 -0.0183,-0.55495 -0.1437,0.17471 -0.2491,0.43442 -0.52026,0.4073 -0.37865,-0.0379 -0.50212,-0.52463 -0.67974,-0.78882 -0.48138,-0.71602 -1.17836,-1.814387 -0.28538,-2.577574 0.48918,-0.418116 1.11582,-0.04821 1.33051,0.461852 0.0894,0.21237 0.0727,0.502398 0.21393,0.68716 0.24605,0.321932 0.49241,0.02126 0.77283,0.100442 0.13458,0.038 0.21445,0.19236 0.31403,0.28018 0.21462,0.1893 0.5657,0.26474 0.83106,0.14355 0.54864,-0.25055 0.41274,-0.865151 0.60742,-1.315384 0.21487,-0.496883 0.68394,-0.776887 0.66691,-1.38736 -0.01,-0.352806 -0.39266,-0.757915 -0.28399,-1.075169 0.10616,-0.309902 0.46285,-0.325267 0.70918,-0.489253 0.26526,-0.176611 0.38829,-0.530041 0.63746,-0.689206 0.24792,-0.158402 0.61956,-0.1284 0.88864,-0.294536 0.21847,-0.134886 0.34635,-0.424983 0.56132,-0.536388 0.17311,-0.08969 0.44923,-0.01616 0.65262,-0.102075 0.12521,-0.05289 0.37004,-0.275773 0.50673,-0.207654 0.1515,0.07547 0.21882,0.404936 0.28125,0.550193 0.12941,0.300988 0.27508,0.614219 0.34098,0.936468 0.0592,0.289611 0.031,0.583836 0.12067,0.8671 0.22863,0.722364 0.57298,1.438068 0.90938,2.115724 0.11525,0.232244 0.34951,0.608149 0.17858,0.865713 -0.30029,0.452377 -1.04877,0.306537 -1.34071,0.764957 -0.16412,0.25777 0.1112,0.45186 0.05,0.68535 -0.0332,0.12649 -0.25892,0.15944 -0.35322,0.23044 -0.39582,0.2979 -0.51967,0.50573 -1.04052,0.50573 m -7.94264,-7.526426 c 0.19139,0.681089 0.0127,1.61291 -0.69368,1.942304 -0.1934,-0.6882 -0.0259,-1.621616 0.69368,-1.942304 m 2.56662,0.104052 c -0.24203,0.822496 -1.32573,0.971152 -2.04636,0.971152 0.2706,-0.919647 1.21928,-1.185153 2.04636,-0.971152 M 104.81752,94.9593 c 0.31386,0.07929 1.39811,0.03389 1.49141,-0.312156 -0.32478,-0.08931 -1.37987,-0.03316 -1.49141,0.312156 m 14.25513,-0.138736 c 0.13141,0.444579 -0.12195,1.00431 -0.52026,1.230137 -0.14765,0.08369 -0.34039,0.06111 -0.47778,0.155072 -0.18902,0.129302 -0.18812,0.399352 -0.45869,0.444996 -0.15965,0.02692 -0.45263,-0.05463 -0.38444,-0.269564 0.0757,-0.238661 0.35246,-0.453459 0.52317,-0.624173 0.15605,-0.156044 0.31202,-0.306919 0.48558,-0.443574 0.24695,-0.194438 0.52723,-0.404797 0.83242,-0.492894 m -7.14491,0.797732 c 0.46525,0.800125 0.0391,1.435571 -0.45089,2.08104 h -0.0694 c -0.25187,-0.652961 -0.2329,-1.729587 0.52026,-2.08104 m 2.56662,0.138736 c -0.3141,0.922456 -1.20732,1.144572 -2.08104,1.144572 0.2637,-0.795062 1.29357,-1.290765 2.08104,-1.144572 m 5.13323,0.971152 v 0.03468 c 0.61762,-0.03205 1.00001,-0.777997 1.63015,-0.817225 0.1875,-0.01169 0.31302,0.179282 0.48557,0.227597 -0.0713,-0.393768 -0.39484,-0.444302 -0.72836,-0.334389 -0.5222,0.172068 -0.9262,0.605826 -1.38736,0.889333 m -15.12222,0.312156 c 0.37677,-0.0172 1.38229,-0.26724 1.38735,-0.69368 -0.34364,0.08144 -1.37435,0.297519 -1.38735,0.69368 m 16.92579,-0.658996 c -0.037,0.329394 -0.37743,0.277229 -0.62431,0.392727 -0.31677,0.148205 -0.56854,0.398311 -0.8671,0.575199 -0.17554,0.103983 -0.38413,0.138528 -0.55495,0.246014 0.36679,0.219723 1.10542,0.17342 1.5261,0.17342 0.11557,0 0.40552,0.05185 0.48325,-0.0556 0.1148,-0.158748 0.0468,-0.728953 0.002,-0.915553 0.23269,-0.0754 0.21427,-0.208867 0.13873,-0.416208 h -0.10405 m -4.47427,0.585015 c 0.21299,0 0.27591,0.256453 0.27733,0.420821 0.004,0.494212 -0.36602,0.6668 -0.64741,1.005975 -0.0513,0.06184 -0.25142,0.344134 -0.0974,0.404068 0.1327,0.05168 0.32312,-0.291484 0.39956,-0.36817 0.1943,-0.194959 0.51038,-0.32544 0.61793,-0.591016 0.0841,-0.207792 -0.0552,-0.511173 0.0437,-0.682616 0.0534,-0.09257 0.18556,-0.08456 0.25975,-0.02476 0.10096,0.08137 0.13866,0.241539 0.17224,0.360575 0.1285,0.45606 -0.0274,0.858602 -0.31868,1.21394 -0.1172,0.142967 -0.30369,0.273483 -0.37792,0.444996 -0.15753,0.364078 0.1498,1.143953 -0.53718,1.143953 -0.78622,0 -0.59494,-1.045208 -0.6274,-1.519581 -0.0158,-0.230163 -0.0972,-0.466222 -0.0301,-0.69368 0.0595,-0.201722 0.1814,-0.384125 0.30095,-0.554944 0.11349,-0.162078 0.33834,-0.559557 0.56459,-0.559557 m 3.15628,0.559557 c 0.12743,-0.249205 0.51044,-0.40556 0.76305,-0.504167 0.0881,-0.03437 0.24185,-0.101 0.32592,-0.02671 0.0667,0.059 0.0554,0.173628 0.0555,0.253401 6.9e-4,0.416277 -0.33713,0.348678 -0.65893,0.318052 -0.16398,-0.01561 -0.32245,-0.0103 -0.48557,-0.04058 M 110.644,97.144387 c 0.1138,0.196832 0.30862,0.342643 0.39495,0.554944 0.22583,0.555395 -0.22298,1.151509 -0.53368,1.56078 h -0.0694 c -0.28867,-0.542042 -0.48134,-1.765589 0.2081,-2.115724 m 2.67067,0.03468 c -0.12271,0.815733 -1.24932,1.3627 -2.01167,1.21394 0.32752,-0.89457 1.13299,-1.21394 2.01167,-1.21394 m -8.70568,1.976988 c 0.36536,-0.116434 1.24373,-0.595906 1.24862,-1.005836 -0.32058,0.04263 -1.02515,0.489842 -1.22719,0.746712 -0.0616,0.07832 -0.037,0.169605 -0.0214,0.259124 m 5.82691,0.69368 c 0.21653,-0.635896 0.72764,-1.075759 1.38736,-1.192609 0.13208,-0.02341 0.52872,-0.125522 0.62185,0.0044 0.11054,0.154274 -0.18806,0.495426 -0.28104,0.598437 -0.45797,0.507531 -1.11142,0.462546 -1.72817,0.589767 m 5.37602,-1.248624 c 0.0671,0.282016 0.0737,0.66732 -0.0473,0.936329 -0.0666,0.147962 -0.22545,0.304214 -0.39901,0.207133 -0.40091,-0.224266 0.19895,-1.022588 0.44628,-1.143462 m -6.2778,2.289144 c -0.37102,-0.79316 -0.42204,-1.402586 0.0347,-2.185092 0.80044,0.416382 0.61016,1.729582 -0.0347,2.185092 m 5.2026,0.27747 h -0.0694 c -0.19992,0.21192 -0.25084,-0.17009 -0.38805,-0.2849 -0.43823,-0.36671 -0.72208,-0.65969 -0.55685,-1.275878 0.046,-0.171512 0.16274,-0.484015 0.38943,-0.462615 0.59948,0.0566 -0.19603,1.429633 0.55547,1.225663 -0.0655,-0.0947 -0.17231,-0.19163 -0.18098,-0.31216 -0.0187,-0.25971 0.16769,-0.495249 0.0837,-0.763009 -0.10526,-0.335707 -0.56129,-0.416971 -0.79714,-0.169674 -0.25454,0.266893 -0.29103,0.723473 -0.23973,1.071423 0.068,0.4614 0.38107,0.56087 0.67824,0.84191 0.11016,0.10416 0.11037,0.27984 0.22763,0.37168 0.20041,0.15691 0.34813,-0.0507 0.29763,-0.24244 m 7.1449,-2.115722 c -0.0257,0.138285 -0.0318,0.277992 -0.056,0.416208 -0.0183,0.104017 -0.0433,0.206093 -0.0466,0.312156 -0.0243,0.804148 1.03268,0.01238 1.38587,-0.06937 v -0.138736 c -0.31618,0.06614 -0.58311,0.225273 -0.8671,0.370287 -0.10995,0.05615 -0.26082,0.116607 -0.35565,1.62e-4 -0.14605,-0.179316 0.0434,-0.667493 0.0435,-0.89072 h -0.10405 m -16.75237,2.150405 c 0.32304,-0.15067 1.09958,-0.9167 0.97115,-1.283305 -0.32107,0.149725 -1.12064,0.918885 -0.97115,1.283305 m 4.61297,0.17342 c 0.0318,-0.69469 0.60766,-1.14766 1.24862,-1.26198 0.13749,-0.0245 0.55869,-0.137516 0.65664,-4.3e-4 0.10929,0.15303 -0.14598,0.4878 -0.23214,0.6034 -0.39227,0.52653 -1.05703,0.65899 -1.67312,0.65899 m -0.76305,1.17926 c -0.79107,-0.3767 -0.63274,-1.60878 -0.27747,-2.21978 0.9158,0.40286 0.72448,1.55666 0.27747,2.21978 m 2.11573,-1.04052 c -0.22965,0.80328 -0.98843,1.38157 -1.83826,1.17926 0.14335,-0.27241 0.249,-0.63639 0.46231,-0.86058 0.3321,-0.34906 0.93688,-0.31868 1.37595,-0.31868 m -4.43956,0.13874 c -0.20699,0.35464 -0.80466,1.13597 -0.58962,1.52609 h 0.0694 c 0.20644,-0.35371 0.78154,-1.12494 0.58963,-1.52609 h -0.0694 m 8.28948,0.90178 c 0.38739,0.18067 0.69868,0.64138 1.00584,0.93511 0.52993,0.5067 1.13257,0.95583 1.76888,1.31931 0.26408,0.15088 0.54523,0.26988 0.83242,0.36963 0.0986,0.0342 0.27695,0.0588 0.3254,0.1652 0.0606,0.13319 -0.0523,0.34119 -0.0866,0.47104 -0.0941,0.35645 -0.20814,0.73812 -0.20345,1.10989 0.005,0.36637 0.11938,0.73419 0.244,1.07521 0.0327,0.0894 0.15861,0.30216 0.0749,0.38936 -0.12025,0.12531 -0.71206,-0.0802 -0.87445,-0.10211 -0.80491,-0.10842 -1.65755,-0.0576 -2.46257,0.019 -0.15656,0.0149 -0.84396,0.13995 -0.92949,-0.008 -0.0546,-0.0946 0.0256,-0.27123 0.0494,-0.36741 0.11938,-0.48204 0.76059,-0.40338 0.84754,-0.97115 0.054,-0.35281 -0.18233,-0.57982 -0.2097,-0.90179 -0.0162,-0.19121 0.12073,-0.39453 0.13506,-0.58963 0.0322,-0.43909 -0.0498,-0.86078 -0.16111,-1.2833 -0.11678,-0.44354 -0.47919,-1.18196 -0.35603,-1.63015 m -7.45706,0.55494 c -0.0548,0.40685 -0.18244,0.81556 -0.28188,1.21394 -0.0499,0.20027 -0.0965,0.40751 0.14314,0.48558 0.0865,-0.4193 0.19739,-0.83287 0.29919,-1.24862 0.0485,-0.19815 0.0673,-0.38326 -0.16045,-0.4509 m 2.8094,3.71119 c -0.0582,-0.003 -0.11737,-0.002 -0.17224,-0.0257 -0.49643,-0.2148 0.37289,-0.94712 0.22163,-0.25174 -0.02,0.0922 -0.0373,0.184 -0.0494,0.27747 m 1.73417,-0.46962 c 0.0934,-5.5e-4 0.2062,0.022 0.22871,0.12778 0.0533,0.25062 -0.0889,0.56954 -0.0889,0.82742 0,0.3176 0.13433,0.5444 0.23234,0.83175 0.0371,0.10881 -0.0167,0.17922 -0.12996,0.1908 -0.84889,0.0868 -1.0915,-1.97286 -0.24216,-1.97775 m 0.83398,-9e-4 c 0.16416,-0.0478 0.6172,-0.057 0.72638,0.1 0.13999,0.20124 0.1094,0.50056 0.26534,0.71734 0.14269,0.19832 0.45023,0.27282 0.56607,0.46445 0.17769,0.29405 -0.28846,0.66978 -0.5188,0.74186 -0.82392,0.25791 -1.28296,-0.29693 -1.32056,-1.06754 -0.0123,-0.25285 -0.0306,-0.86519 0.28157,-0.9561 m 2.14739,0.0411 c 0.20279,-0.006 0.23065,0.28125 0.22354,0.42945 -0.0143,0.29846 -0.19091,0.51138 -0.49952,0.51836 -0.28576,0.006 -0.91968,-0.47594 -0.65799,-0.8096 0.0468,-0.0597 0.13915,-0.0558 0.20713,-0.0541 0.2619,0.007 0.47947,-0.0765 0.72684,-0.0841 m -3.7097,1.40061 c -0.63333,0.18545 -1.01281,-0.7429 -0.66396,-1.20427 0.0913,-0.1208 0.52058,-0.23914 0.60833,-0.064 0.0566,0.11293 -0.007,0.28177 -0.0124,0.40116 -0.013,0.29731 0.0115,0.57596 0.068,0.8671 z"
       id="path346" /></g></svg>
